<svg width="20" height="20" viewBox="0 0 20 20" fill="none" xmlns="http://www.w3.org/2000/svg">
<path d="M9.99996 18.3332C8.86107 18.3332 7.78468 18.1143 6.77079 17.6765C5.7569 17.2393 4.87163 16.6421 4.11496 15.8848C3.35774 15.1282 2.76051 14.2429 2.32329 13.229C1.88551 12.2151 1.66663 11.1387 1.66663 9.99984C1.66663 8.84706 1.88551 7.76734 2.32329 6.76067C2.76051 5.75345 3.35774 4.8715 4.11496 4.11484C4.87163 3.35761 5.7569 2.76011 6.77079 2.32234C7.78468 1.88511 8.86107 1.6665 9.99996 1.6665C11.1527 1.6665 12.2325 1.88511 13.2391 2.32234C14.2463 2.76011 15.1283 3.35761 15.885 4.11484C16.6422 4.8715 17.2394 5.75345 17.6766 6.76067C18.1144 7.76734 18.3333 8.84706 18.3333 9.99984V11.2082C18.3333 12.0276 18.0522 12.7254 17.49 13.3015C16.9272 13.8782 16.2361 14.1665 15.4166 14.1665C14.9166 14.1665 14.4513 14.0554 14.0208 13.8332C13.5902 13.6109 13.2361 13.3193 12.9583 12.9582C12.5833 13.3332 12.1425 13.6284 11.6358 13.844C11.1286 14.059 10.5833 14.1665 9.99996 14.1665C8.84718 14.1665 7.86468 13.7601 7.05246 12.9473C6.23968 12.1351 5.83329 11.1526 5.83329 9.99984C5.83329 8.84706 6.23968 7.86428 7.05246 7.0515C7.86468 6.23928 8.84718 5.83317 9.99996 5.83317C11.1527 5.83317 12.1355 6.23928 12.9483 7.0515C13.7605 7.86428 14.1666 8.84706 14.1666 9.99984V11.2082C14.1666 11.6109 14.2916 11.9268 14.5416 12.1557C14.7916 12.3851 15.0833 12.4998 15.4166 12.4998C15.75 12.4998 16.0416 12.3851 16.2916 12.1557C16.5416 11.9268 16.6666 11.6109 16.6666 11.2082V9.99984C16.6666 8.18039 16.0102 6.61428 14.6975 5.3015C13.3852 3.98928 11.8194 3.33317 9.99996 3.33317C8.18051 3.33317 6.6144 3.98928 5.30163 5.3015C3.9894 6.61428 3.33329 8.18039 3.33329 9.99984C3.33329 11.8193 3.9894 13.3851 5.30163 14.6973C6.6144 16.0101 8.18051 16.6665 9.99996 16.6665H14.1666V18.3332H9.99996ZM9.99996 12.4998C10.6944 12.4998 11.2847 12.2568 11.7708 11.7707C12.2569 11.2846 12.5 10.6943 12.5 9.99984C12.5 9.30539 12.2569 8.71511 11.7708 8.229C11.2847 7.74289 10.6944 7.49984 9.99996 7.49984C9.30551 7.49984 8.71524 7.74289 8.22913 8.229C7.74301 8.71511 7.49996 9.30539 7.49996 9.99984C7.49996 10.6943 7.74301 11.2846 8.22913 11.7707C8.71524 12.2568 9.30551 12.4998 9.99996 12.4998Z" fill="#898989"/>
</svg>
