<svg width="24" height="24" viewBox="0 0 24 24" fill="none" xmlns="http://www.w3.org/2000/svg">
<path d="M22.1906 17.6251L13.95 3.37506C13.7527 3.03234 13.4686 2.74767 13.1262 2.54972C12.7839 2.35178 12.3954 2.24756 12 2.24756C11.6045 2.24756 11.2161 2.35178 10.8737 2.54972C10.5314 2.74767 10.2473 3.03234 10.05 3.37506L1.80936 17.6251C1.60917 17.966 1.50279 18.3539 1.501 18.7493C1.49921 19.1447 1.60209 19.5336 1.79919 19.8763C1.99629 20.2191 2.28058 20.5036 2.62321 20.701C2.96583 20.8984 3.35458 21.0015 3.74999 21.0001H20.25C20.6454 21.0015 21.0341 20.8984 21.3768 20.701C21.7194 20.5036 22.0037 20.2191 22.2008 19.8763C22.3979 19.5336 22.5008 19.1447 22.499 18.7493C22.4972 18.3539 22.3908 17.966 22.1906 17.6251ZM11.25 9.75006C11.25 9.55115 11.329 9.36038 11.4697 9.21973C11.6103 9.07908 11.8011 9.00006 12 9.00006C12.1989 9.00006 12.3897 9.07908 12.5303 9.21973C12.671 9.36038 12.75 9.55115 12.75 9.75006V13.5001C12.75 13.699 12.671 13.8897 12.5303 14.0304C12.3897 14.171 12.1989 14.2501 12 14.2501C11.8011 14.2501 11.6103 14.171 11.4697 14.0304C11.329 13.8897 11.25 13.699 11.25 13.5001V9.75006ZM12 18.0001C11.7775 18.0001 11.56 17.9341 11.375 17.8105C11.19 17.6868 11.0458 17.5111 10.9606 17.3056C10.8755 17.1 10.8532 16.8738 10.8966 16.6556C10.94 16.4374 11.0472 16.2369 11.2045 16.0796C11.3618 15.9222 11.5623 15.8151 11.7805 15.7717C11.9987 15.7283 12.2249 15.7505 12.4305 15.8357C12.6361 15.9208 12.8118 16.065 12.9354 16.25C13.059 16.4351 13.125 16.6526 13.125 16.8751C13.125 17.1734 13.0065 17.4596 12.7955 17.6706C12.5845 17.8815 12.2984 18.0001 12 18.0001Z" fill="#F02424"/>
</svg>
