<svg width="20" height="20" viewBox="0 0 20 20" fill="none" xmlns="http://www.w3.org/2000/svg">
<path fill-rule="evenodd" clip-rule="evenodd" d="M13.7934 18.4442C12.5934 18.4001 9.19254 17.9301 5.63087 14.3692C2.07004 10.8076 1.60087 7.40756 1.55587 6.20672C1.48921 4.37672 2.89087 2.59922 4.51004 1.90506C4.70502 1.82086 4.91854 1.78881 5.12965 1.81204C5.34076 1.83527 5.5422 1.91298 5.71421 2.03756C7.04754 3.00922 7.96754 4.47922 8.75754 5.63506C8.93136 5.889 9.00568 6.19801 8.96634 6.50322C8.927 6.80843 8.77674 7.0885 8.54421 7.29006L6.91837 8.49756C6.83983 8.55428 6.78453 8.63758 6.76277 8.73199C6.74101 8.8264 6.75425 8.92551 6.80004 9.01089C7.16837 9.68006 7.82337 10.6767 8.57337 11.4267C9.32421 12.1767 10.3675 12.8751 11.0834 13.2851C11.1731 13.3354 11.2788 13.3495 11.3786 13.3244C11.4784 13.2993 11.5648 13.2369 11.62 13.1501L12.6784 11.5392C12.8729 11.2808 13.16 11.1076 13.4794 11.056C13.7987 11.0045 14.1257 11.0785 14.3917 11.2626C15.5642 12.0742 16.9325 12.9784 17.9342 14.2609C18.0689 14.4341 18.1546 14.6404 18.1823 14.8581C18.21 15.0758 18.1787 15.2969 18.0917 15.4984C17.3942 17.1259 15.6292 18.5117 13.7934 18.4442Z" fill="#898989"/>
</svg>
